<svg width="300" height="768" xmlns="http://www.w3.org/2000/svg">
 <!-- Created with Method Draw - http://github.com/duopixel/Method-Draw/ -->

 <g>
  <title>background</title>
  <rect x="-1" y="-1" width="302" height="770" id="canvas_background" fill="none"/>
  <g id="canvasGrid" display="none">
   <rect id="svg_1" width="100%" height="100%" x="0" y="0" stroke-width="0" fill="url(#gridpattern)"/>
  </g>
 </g>
 <g>
  <title>Layer 1</title>
  <g id="svg_19" stroke="null">
   <path fill="#ffffff" stroke-width="0" d="m205.47738,28.44147c0,0 18.8122,0 18.80619,-0.00001c0.00601,0.00001 5.4752,-19.99643 5.4752,-19.99643c0,0 -5.23716,-12.1407 -16.18759,0" id="svg_15" stroke="null"/>
   <path fill="#ffffff" stroke-width="0" d="m193.57474,37.01137c0,0 33.56883,0 33.56547,-0.00001c0.00336,0.00001 -0.47612,64.75039 -0.47612,64.75039c0,0 -94.26894,11.66459 -94.26894,11.66459c0,0 61.17959,-76.41497 61.17959,-76.41497z" id="svg_16" stroke="null"/>
   <path fill="#ffffff" stroke-width="0" d="m113.11287,120.80598c0,0 129.73881,0.23806 129.73881,0.23806c0,0 -10.23627,18.80617 -10.47431,18.80615c0.23804,0.00002 -119.50255,26.9 -119.50255,26.9c0,0 0.23805,-45.94421 0.23805,-45.94421z" id="svg_17" stroke="null"/>
   <path fill="#ffffff" stroke-width="0" d="m92.80998,190.26089c0,0 155.76142,-34.407 155.76142,-34.407c0,0 -76.71831,162.73581 -76.71831,162.73581c0,0 124.60914,-33.01212 124.60914,-33.01212c0,0 -270.14145,479.3732 -270.14145,479.3732c0,0 104.61588,-358.48374 104.61588,-358.48374c0,0 -127.3989,42.31131 -127.3989,42.31131c0,0 89.27222,-258.51746 89.27222,-258.51746z" id="svg_18" stroke="null"/>
  </g>
 </g>
</svg>